<svg id="_0265_money_jar" xmlns="http://www.w3.org/2000/svg" viewBox="0 0 500 500" data-imageid="money-jar-22" imageName="Money Jar" class="illustrations_image" style="width: 151px;"><defs><style>.cls-1_money-jar-22{fill:#fff;}.cls-2_money-jar-22{fill:#f4a28c;}.cls-3_money-jar-22{opacity:.03;}.cls-3_money-jar-22,.cls-4_money-jar-22,.cls-5_money-jar-22{fill:none;}.cls-4_money-jar-22{opacity:.09;}.cls-5_money-jar-22{opacity:.36;}.cls-6_money-jar-22{fill:#24285b;}.cls-7_money-jar-22{fill:#000001;}.cls-8_money-jar-22{fill:#ffd200;}.cls-9_money-jar-22{fill:#68e1fd;}</style></defs><g class="cls-3_money-jar-22"><circle class="cls-7_money-jar-22" cx="250" cy="250" r="188.61"/></g><g id="jar_money-jar-22"><g class="cls-5_money-jar-22"><path class="cls-9_money-jar-22 targetColor" d="m349.35,121.75v-11.09h-126.31v11.09c0,8.28-6.71,14.99-14.99,14.99h0c-7.5,0-13.58,6.08-13.58,13.58v151.47c0,17.44,14.14,31.58,31.58,31.58h122.14c17.44,0,31.58-14.14,31.58-31.58v-151.47c0-7.5-6.08-13.58-13.58-13.58h-1.86c-8.28,0-14.99-6.71-14.99-14.99Z" style="fill: rgb(104, 225, 253);"/></g><circle class="cls-8_money-jar-22" cx="282.23" cy="58.32" r="31.63"/><path class="cls-1_money-jar-22" d="m283.05,40.52c.45,0,.76.09.93.28s.26.5.26.95v1.94c1.82.26,3.3.85,4.43,1.76,1.13.91,2.08,2.16,2.85,3.74.24.48.3.86.18,1.15-.12.29-.44.55-.97.79l-1.94.87c-.45.21-.8.26-1.07.16-.26-.1-.53-.4-.79-.87-.53-1.03-1.17-1.79-1.92-2.3-.75-.5-1.8-.75-3.15-.75-1.69,0-2.93.26-3.72.77-.79.51-1.19,1.34-1.19,2.47,0,.74.28,1.33.85,1.78.57.45,1.19.75,1.88.89.69.15,1.64.28,2.85.42,1.11.11,2.02.22,2.73.34.71.12,1.56.35,2.53.69.98.34,1.75.77,2.32,1.29.57.51,1.06,1.25,1.48,2.2.42.95.63,2.06.63,3.32,0,2.16-.69,3.94-2.08,5.34-1.39,1.4-3.36,2.28-5.92,2.65v2.06c0,.45-.09.76-.26.95-.17.18-.48.28-.93.28h-2.18c-.45,0-.77-.09-.95-.28-.18-.19-.28-.5-.28-.95v-2.02c-3.96-.5-6.6-2.53-7.92-6.09-.32-.87-.01-1.48.91-1.82l1.94-.71c.5-.18.88-.21,1.15-.08.26.13.5.45.71.95.87,2.22,2.65,3.32,5.34,3.32,3.64,0,5.46-1.16,5.46-3.48,0-.61-.14-1.11-.42-1.5-.28-.4-.71-.71-1.29-.93-.58-.22-1.15-.39-1.72-.49-.57-.1-1.3-.2-2.2-.28-1.08-.1-2-.23-2.75-.38-.75-.14-1.6-.4-2.55-.75-.95-.36-1.72-.8-2.32-1.33-.59-.53-1.09-1.25-1.5-2.18-.41-.92-.61-1.99-.61-3.21,0-2.14.66-3.89,1.98-5.24,1.32-1.36,3.25-2.21,5.78-2.55v-1.94c0-.45.09-.77.28-.95s.5-.28.95-.28h2.18Z"/><rect class="cls-6_money-jar-22" x="205.08" y="70.12" width="162.6" height="40.55"/><g class="cls-4_money-jar-22"><path class="cls-7_money-jar-22" d="m252.88,70.12s-2.56-5.9-2.28-11.8l62.7,5.9s-.83,4.31-1.73,5.9h-58.7Z"/></g><path class="cls-8_money-jar-22" d="m360.1,294.21v-11.07h-17.4c-4.59-1.05-9.81-1.66-15.36-1.66s-10.77.6-15.36,1.66h-17.63v12.7c0,7.93,14.77,14.35,32.98,14.35s32.98-6.43,32.98-14.35c0-.55-.09-1.09-.23-1.62Z"/><g class="cls-4_money-jar-22"><path class="cls-7_money-jar-22" d="m360.1,294.21v-11.07h-17.4c-4.59-1.05-9.81-1.66-15.36-1.66s-10.77.6-15.36,1.66h-17.63v12.7c0,7.93,14.77,14.35,32.98,14.35s32.98-6.43,32.98-14.35c0-.55-.09-1.09-.23-1.62Z"/></g><ellipse class="cls-8_money-jar-22" cx="327.34" cy="283.14" rx="32.98" ry="14.35"/><path class="cls-8_money-jar-22" d="m284.47,294.21v-11.07h-17.4c-4.59-1.05-9.81-1.66-15.36-1.66s-10.77.6-15.36,1.66h-17.63v12.7c0,7.93,14.77,14.35,32.98,14.35s32.98-6.43,32.98-14.35c0-.55-.09-1.09-.23-1.62Z"/><g class="cls-4_money-jar-22"><path class="cls-7_money-jar-22" d="m284.47,294.21v-11.07h-17.4c-4.59-1.05-9.81-1.66-15.36-1.66s-10.77.6-15.36,1.66h-17.63v12.7c0,7.93,14.77,14.35,32.98,14.35s32.98-6.43,32.98-14.35c0-.55-.09-1.09-.23-1.62Z"/></g><ellipse class="cls-8_money-jar-22" cx="251.71" cy="283.14" rx="32.98" ry="14.35"/><path class="cls-8_money-jar-22" d="m354.03,276.82v-11.07h-17.4c-4.59-1.05-9.81-1.66-15.36-1.66s-10.77.6-15.36,1.66h-17.63v12.7c0,7.93,14.77,14.35,32.98,14.35s32.98-6.43,32.98-14.35c0-.55-.09-1.09-.23-1.62Z"/><g class="cls-4_money-jar-22"><path class="cls-7_money-jar-22" d="m354.03,276.82v-11.07h-17.4c-4.59-1.05-9.81-1.66-15.36-1.66s-10.77.6-15.36,1.66h-17.63v12.7c0,7.93,14.77,14.35,32.98,14.35s32.98-6.43,32.98-14.35c0-.55-.09-1.09-.23-1.62Z"/></g><ellipse class="cls-8_money-jar-22" cx="321.27" cy="265.75" rx="32.98" ry="14.35"/><path class="cls-8_money-jar-22" d="m356.79,258.88v-11.07h-17.4c-4.59-1.05-9.81-1.66-15.36-1.66s-10.77.6-15.36,1.66h-17.63v12.7c0,7.93,14.77,14.35,32.98,14.35s32.98-6.43,32.98-14.35c0-.55-.09-1.09-.23-1.62Z"/><g class="cls-4_money-jar-22"><path class="cls-7_money-jar-22" d="m356.79,258.88v-11.07h-17.4c-4.59-1.05-9.81-1.66-15.36-1.66s-10.77.6-15.36,1.66h-17.63v12.7c0,7.93,14.77,14.35,32.98,14.35s32.98-6.43,32.98-14.35c0-.55-.09-1.09-.23-1.62Z"/></g><ellipse class="cls-8_money-jar-22" cx="324.03" cy="247.81" rx="32.98" ry="14.35"/><path class="cls-8_money-jar-22" d="m356.79,244.53v-11.07h-17.4c-4.59-1.05-9.81-1.66-15.36-1.66s-10.77.6-15.36,1.66h-17.63v12.7c0,7.93,14.77,14.35,32.98,14.35s32.98-6.43,32.98-14.35c0-.55-.09-1.09-.23-1.62Z"/><g class="cls-4_money-jar-22"><path class="cls-7_money-jar-22" d="m356.79,244.53v-11.07h-17.4c-4.59-1.05-9.81-1.66-15.36-1.66s-10.77.6-15.36,1.66h-17.63v12.7c0,7.93,14.77,14.35,32.98,14.35s32.98-6.43,32.98-14.35c0-.55-.09-1.09-.23-1.62Z"/></g><ellipse class="cls-8_money-jar-22" cx="324.03" cy="233.45" rx="32.98" ry="14.35"/><path class="cls-8_money-jar-22" d="m340.12,136.12l-6.14-9.21-14.48,9.66c-4.4,1.67-9.08,4.07-13.7,7.15-4.62,3.08-8.62,6.48-11.86,9.9l-14.66,9.78,7.05,10.56c4.4,6.59,20.25,3.74,35.4-6.36,15.15-10.11,23.87-23.65,19.47-30.24-.31-.46-.68-.86-1.09-1.23Z"/><g class="cls-4_money-jar-22"><path class="cls-7_money-jar-22" d="m340.12,136.12l-6.14-9.21-14.48,9.66c-4.4,1.67-9.08,4.07-13.7,7.15-4.62,3.08-8.62,6.48-11.86,9.9l-14.66,9.78,7.05,10.56c4.4,6.59,20.25,3.74,35.4-6.36,15.15-10.11,23.87-23.65,19.47-30.24-.31-.46-.68-.86-1.09-1.23Z"/></g><ellipse class="cls-8_money-jar-22" cx="306.72" cy="145.09" rx="32.98" ry="14.35" transform="translate(-28.95 194.6) rotate(-33.71)"/><g class="cls-4_money-jar-22"><path class="cls-7_money-jar-22" d="m301.1,255.8s28.9,5.54,28.35,27.34c-.55,21.81,4.13,26.79,4.13,26.79,0,0-12.88,1.64-26.72-2.85-13.84-4.49-5.76-51.29-5.76-51.29Z"/></g><circle class="cls-8_money-jar-22" cx="293.37" cy="283.92" r="29.17"/><g class="cls-4_money-jar-22"><circle class="cls-7_money-jar-22" cx="293.37" cy="283.92" r="29.17"/></g><circle class="cls-8_money-jar-22" cx="285.22" cy="283.92" r="29.17"/><circle class="cls-8_money-jar-22" cx="244.34" cy="211.38" r="29.17"/><g class="cls-4_money-jar-22"><circle class="cls-7_money-jar-22" cx="244.34" cy="211.38" r="29.17"/></g><circle class="cls-8_money-jar-22" cx="244.34" cy="203.24" r="29.17"/><g class="cls-4_money-jar-22"><path class="cls-7_money-jar-22" d="m277.77,287.58s37.03,5.45,9.36,43.64c-27.67,38.2-32.35-14.93-9.36-43.64Z"/></g></g><g id="hand_money-jar-22"><path class="cls-2_money-jar-22" d="m204.48,340.51s35.9-69.94,69.6-56.35c7.94,3.2,4.9,17.31.93,28.61-2.3,6.55,3.29,13.15,10.12,11.96,25.96-4.5,74.85-12.06,86.39-7.51,15.91,6.27,5.91,24.39-42.65,39.42-37.74,11.68-47.09,22.1-75.02,40.74-42.71,28.5-68.26-25.56-49.39-56.87Z"/><polygon class="cls-9_money-jar-22 targetColor" points="199.99 336.82 239.25 409.82 179.73 473.31 120.22 396.89 199.99 336.82" style="fill: rgb(104, 225, 253);"/><g class="cls-4_money-jar-22"><polygon class="cls-7_money-jar-22" points="158.37 443.86 230.5 392.37 239.25 409.82 179.73 473.31 158.37 443.86"/></g></g></svg>